<svg height="384pt" viewBox="0 0 384 384" width="384pt" xmlns="http://www.w3.org/2000/svg"><path d="m336 0h-288c-26.472656 0-48 21.527344-48 48v288c0 26.472656 21.527344 48 48 48h288c26.472656 0 48-21.527344 48-48v-288c0-26.472656-21.527344-48-48-48zm0 352h-128v-16c0-8.832031-7.167969-16-16-16s-16 7.167969-16 16v16h-128c-8.824219 0-16-7.175781-16-16v-128h16c8.832031 0 16-7.167969 16-16s-7.167969-16-16-16h-16v-128c0-8.824219 7.175781-16 16-16h128v16c0 8.832031 7.167969 16 16 16s16-7.167969 16-16v-16h128c8.824219 0 16 7.175781 16 16v128h-16c-8.832031 0-16 7.167969-16 16s7.167969 16 16 16h16v128c0 8.824219-7.175781 16-16 16zm0 0"/><path d="m208 185.367188v-81.367188c0-8.832031-7.167969-16-16-16s-16 7.167969-16 16v88c0 4.238281 1.6875 8.3125 4.6875 11.3125l80 80c3.121094 3.128906 7.214844 4.6875 11.3125 4.6875s8.191406-1.558594 11.3125-4.6875c6.246094-6.25 6.246094-16.375 0-22.625zm0 0"/></svg>