<svg height="384pt" viewBox="0 0 384 384" width="384pt" xmlns="http://www.w3.org/2000/svg"><path d="m192 384c105.863281 0 192-86.128906 192-192s-86.136719-192-192-192-192 86.128906-192 192 86.136719 192 192 192zm-16-351.191406v15.191406c0 8.832031 7.167969 16 16 16s16-7.167969 16-16v-15.191406c75.472656 7.535156 135.664062 67.71875 143.191406 143.191406h-15.191406c-8.832031 0-16 7.167969-16 16s7.167969 16 16 16h15.191406c-7.527344 75.472656-67.71875 135.65625-143.191406 143.191406v-15.191406c0-8.832031-7.167969-16-16-16s-16 7.167969-16 16v15.191406c-75.472656-7.535156-135.664062-67.71875-143.191406-143.191406h15.191406c8.832031 0 16-7.167969 16-16s-7.167969-16-16-16h-15.191406c7.527344-75.472656 67.71875-135.65625 143.191406-143.191406zm0 0"/><path d="m200 208h80c8.832031 0 16-7.167969 16-16s-7.167969-16-16-16h-72v-48c0-8.832031-7.167969-16-16-16s-16 7.167969-16 16v56c0 13.230469 10.769531 24 24 24zm0 0"/></svg>