<svg xmlns="http://www.w3.org/2000/svg" viewBox="0 0 188 174.63">
  <circle cx="93.3" cy="16.8" r="16.8"/>
  <path d="M81.83,174.63h0A11.48,11.48,0,0,0,93.3,163.15a11.48,11.48,0,0,0,11.47,11.48h0a11.48,11.48,0,0,0,11.48-11.48V108.07H119a13.08,13.08,0,0,0,13-11.92,11.17,11.17,0,0,0,.06-1.17V53.51A13.07,13.07,0,0,0,119,40.43H103.86L93.22,57.07,82.74,40.43H67.57A13.08,13.08,0,0,0,54.49,53.51V95c0,.43,0,.85.06,1.27a13.09,13.09,0,0,0,13,11.82h2.78v55.08A11.48,11.48,0,0,0,81.83,174.63Z"/>
  <circle style="opacity:0.5" cx="32.78" cy="18.58" r="14.19"/>
  <path style="opacity:0.5" d="M47.38,53.51a20.12,20.12,0,0,1,6.06-14.4H11.05a11.05,11.05,0,0,0-11,11v35A11.06,11.06,0,0,0,11.05,96.25H13.4v46.53a9.69,9.69,0,0,0,9.69,9.69h0a9.69,9.69,0,0,0,9.69-9.69,9.69,9.69,0,0,0,9.7,9.69h0a9.69,9.69,0,0,0,9.69-9.69V108a20.07,20.07,0,0,1-4.79-13Z"/>
  <circle style="opacity:0.5" cx="155.22" cy="18.58" r="14.19" transform="translate(78.66 154.87) rotate(-67.5)"/>
  <path style="opacity:0.5" d="M177,39.11H133.17a20.11,20.11,0,0,1,6.05,14.39V95a20.1,20.1,0,0,1-3.38,11.17v36.63a9.69,9.69,0,0,0,9.69,9.69h0a9.69,9.69,0,0,0,9.69-9.69,9.69,9.69,0,0,0,9.69,9.69h0a9.69,9.69,0,0,0,9.69-9.69V96.25H177A11,11,0,0,0,188,85.19v-35A11,11,0,0,0,177,39.11Z"/>
</svg>
