<svg xmlns="http://www.w3.org/2000/svg" viewBox="0 0 63.15 60.2">
  <path class="cls-1" d="M42.28,0c.5.09,1,.16,1.51.27A7.72,7.72,0,0,1,49.61,7c.13,1.88.07,3.77.08,5.66,0,3.07,0,6.15,0,9.22a2.61,2.61,0,0,1-1.62,2.56,2.59,2.59,0,0,1-3.59-2.21c0-1.67,0-3.34,0-5V8a2.65,2.65,0,0,0-2-2.7,3.13,3.13,0,0,0-.75-.07H8A2.62,2.62,0,0,0,5.22,8V52.13A2.65,2.65,0,0,0,8.05,55h33.6a2.67,2.67,0,0,0,2.82-2.85V47.34a2.58,2.58,0,0,1,2.59-2.66,2.63,2.63,0,0,1,2.63,2.68q0,2.49,0,5a7.89,7.89,0,0,1-6.88,7.78l-.53.08H7.41a1.11,1.11,0,0,0-.26-.07A7.78,7.78,0,0,1,.46,54.94C.25,54.31.15,53.64,0,53V7.14A.6.6,0,0,0,.06,7,7.8,7.8,0,0,1,5.68.34C6.25.19,6.83.11,7.41,0Z"/>
  <path class="cls-1" d="M63.15,23.68a1.89,1.89,0,0,0-.31.25L45.17,41.58a1.29,1.29,0,0,1-.56.36L38,44l-.23,0c.1-.6.2-1.17.3-1.74.31-1.78.62-3.57,1-5.35a1.17,1.17,0,0,1,.32-.61Q45.7,30,52,23.64l5.57-5.57,5.55,5.54Z"/>
  <path class="cls-1" d="M22.67,40.88c.63-.69,1.19-1.34,1.79-1.94a15.88,15.88,0,0,1,1.92-1.75,2.13,2.13,0,0,1,3.41,1,5.27,5.27,0,0,1,.41,2.42V41l.7-.29a1.3,1.3,0,0,1,1.63.58A1.26,1.26,0,0,1,32.1,43a8.81,8.81,0,0,1-3,1.13,1.57,1.57,0,0,1-1.79-1.85c.11-.69.22-1.37.31-2.06a2.46,2.46,0,0,0-.06-.53l-.12-.08-.78.89c-.86.93-1.72,1.87-2.59,2.79a3.05,3.05,0,0,1-1.59,1,1.73,1.73,0,0,1-2-1A7.5,7.5,0,0,1,20,40.73c-.08-1.11-.18-2.22-.27-3.33l-.13-.07-.55.62a44,44,0,0,0-4.32,6.25c-.18.31-.35.62-.53.92a1.34,1.34,0,0,1-1.82.5,1.31,1.31,0,0,1-.46-1.8c.5-.9,1-1.8,1.57-2.69a30.08,30.08,0,0,1,3.39-4.69,10.87,10.87,0,0,1,1.95-1.7A2,2,0,0,1,22.08,36a31.39,31.39,0,0,1,.5,3.52C22.63,39.94,22.63,40.36,22.67,40.88Z"/>
  <path class="cls-1" d="M39.21,15.74v2.57H10.48V15.74Z"/>
  <path class="cls-1" d="M10.47,23.53V21H39.2v2.57Z"/>
  <path class="cls-1" d="M34,26.18v2.6H10.47v-2.6Z"/>
</svg>
