<svg xmlns="http://www.w3.org/2000/svg" viewBox="0 0 47.1 59.99">
  <path class="cls-1" d="M37.08,60H10.69l-.21,0c-.88,0-1.77-.07-2.66-.08A6.82,6.82,0,0,1,3.91,58.6,8.34,8.34,0,0,1,0,51.35c0-4.42,0-8.83,0-13.25Q0,26.22,0,14.35A.81.81,0,0,1,.06,14,15.67,15.67,0,0,1,2.61,9.88a44.44,44.44,0,0,1,5.7-5.44A26.26,26.26,0,0,1,14.1.83,7.7,7.7,0,0,1,17.5.05a7.13,7.13,0,0,0,.79,0H34.82c.11,0,.22,0,.33,0,1.21,0,2.43,0,3.64.05A7.4,7.4,0,0,1,41,.35,9.08,9.08,0,0,1,46,4.4a6.16,6.16,0,0,1,1,3c0,.95.07,1.91.07,2.87q0,10.83,0,21.67,0,9.66-.07,19.31a10.14,10.14,0,0,1-.26,2.58c-.79,2.88-4,6.32-8.19,6.1C38.08,59.92,37.58,60,37.08,60ZM4.22,14.94v.44q0,18.56.08,37.12a.91.91,0,0,0,0,.33A5.28,5.28,0,0,0,6.07,55a4.11,4.11,0,0,0,2.35.78c6.14,0,12.28,0,18.42-.06l12.74,0a1.07,1.07,0,0,0,.43-.09A5.17,5.17,0,0,0,42.67,53a1.19,1.19,0,0,0,.13-.49c0-1.52,0-3,0-4.56q0-9.85,0-19.71l0-20.41a1.52,1.52,0,0,0-.1-.47,5,5,0,0,0-2.69-2.9,1.55,1.55,0,0,0-.47-.12l-3.12,0-18.94,0c-.4,0-.4,0-.42.39-.08,1.89-.07,3.8-.28,5.68a4.75,4.75,0,0,1-4.39,4.42,34.18,34.18,0,0,1-4.06.19C7,15,5.65,14.94,4.22,14.94Z"/>
  <path class="cls-1" d="M37.59,49.19l-2.49-.92c-.56-.21-1.12-.43-1.69-.62a.72.72,0,0,0-.46,0l-3.78,1.4c-.09,0-.19.06-.34.11.08-.57.15-1.1.24-1.62.32-1.81.64-3.61.95-5.42a.66.66,0,0,0-.13-.45,8.18,8.18,0,0,1-1.49-2,5.16,5.16,0,0,1,1.28-6.08A4.83,4.83,0,0,1,33,32.22a5.22,5.22,0,0,1,5.23,3.69,5.07,5.07,0,0,1-1.37,5.38,1.24,1.24,0,0,0-.41,1.26c.39,2.06.72,4.13,1.08,6.2C37.56,48.87,37.56,49,37.59,49.19Z"/>
  <path class="cls-1" d="M23.52,28.87H10.82c-.41,0-.82,0-1.23,0a.74.74,0,0,1-.71-.43,2.27,2.27,0,0,1-.05-2.09.78.78,0,0,1,.78-.48c2.42,0,4.85-.08,7.28-.09H34.67c1,0,2,.06,2.94.09a.71.71,0,0,1,.68.47,2.59,2.59,0,0,1,0,2,.84.84,0,0,1-.86.56c-1.22,0-2.44.08-3.67.08H23.52Z"/>
  <path class="cls-1" d="M23.38,19.3c3.95,0,7.91,0,11.87,0,.81,0,1.61.07,2.42.1a.64.64,0,0,1,.58.38,2.46,2.46,0,0,1,0,2.18.63.63,0,0,1-.57.4c-.7,0-1.41.1-2.11.1H12.26c-.85,0-1.7-.05-2.54-.05a.93.93,0,0,1-1-.7,2.33,2.33,0,0,1,0-1.76.79.79,0,0,1,.81-.55l13.78-.16Z"/>
  <path class="cls-1" d="M16.41,35.32h-6c-.27,0-.55,0-.82,0a.72.72,0,0,1-.68-.44,2.39,2.39,0,0,1-.07-2.07.79.79,0,0,1,.79-.51l9.91-.09c1.24,0,2.49,0,3.73,0a1,1,0,0,1,.94.57,2.23,2.23,0,0,1,0,2.14.74.74,0,0,1-.5.34,19.1,19.1,0,0,1-2.13.17c-1.72,0-3.45,0-5.17,0Z"/>
  <path class="cls-1" d="M16.56,48.27l-6.77-.1c-.67,0-.9-.19-1.08-.84a2.67,2.67,0,0,1,0-1.51.82.82,0,0,1,.91-.69c1.61,0,3.22-.06,4.83-.07,3,0,6,0,9,0a.65.65,0,0,1,.4.16,2,2,0,0,1,0,2.88.7.7,0,0,1-.42.16H16.56Z"/>
  <path class="cls-1" d="M16.42,41.75H9.93c-.74,0-1-.08-1.27-1.1a2.53,2.53,0,0,1,0-.91c.14-.81.41-1,1.23-1.05l11.44-.09c.65,0,1.29,0,1.93,0a.91.91,0,0,1,.91.53,2.24,2.24,0,0,1,0,2.2.72.72,0,0,1-.48.32,14.9,14.9,0,0,1-1.88.16c-1.81,0-3.62,0-5.42,0Z"/>
</svg>
