<svg xmlns="http://www.w3.org/2000/svg" viewBox="0 0 62.88 66.51">
  <path class="cls-1" d="M17.5,39.41a23.38,23.38,0,0,0-.4,4.21A22.89,22.89,0,1,0,40,20.73c-.17,0-.34,0-.5,0,0-.33.06-.65.06-1a19.78,19.78,0,1,0-22,19.63Zm39.43,4.21A16.95,16.95,0,1,1,40,26.68,17,17,0,0,1,56.93,43.62ZM19.78,6A13.84,13.84,0,0,1,33.6,19.78a13.53,13.53,0,0,1-.14,1.91,23,23,0,0,0-14,11.88A13.81,13.81,0,0,1,19.78,6Z"/>
  <polygon class="cls-1" points="37.46 45.19 37.46 54.33 43.17 54.33 43.17 32.92 31.73 42.57 35.4 46.92 37.46 45.19"/>
  <polygon class="cls-1" points="17.95 20.9 17.95 27.49 22.06 27.49 22.06 12.06 13.81 19.01 16.46 22.16 17.95 20.9"/>
</svg>
