<svg xmlns="http://www.w3.org/2000/svg" viewBox="0 0 51.19 52.57">
  <path class="cls-1" d="M0,52.46a14.24,14.24,0,0,1,.85-2.31C3.64,45.4,6.49,40.69,9.31,36a6.41,6.41,0,0,1,3.12-2.69A48.38,48.38,0,0,0,17.21,31a40.36,40.36,0,0,0,3.56-2.56c1.11,1.09,2.29,2.21,3.43,3.38,1.46,1.48,1.44,1.49,2.87.06l3-3c.18-.18.4-.34.68-.58a17,17,0,0,0,7.19,4.43,9.8,9.8,0,0,1,5.13,4.79c1.85,3.22,3.82,6.36,5.71,9.56.72,1.2,1.4,2.42,2,3.66a7.63,7.63,0,0,1,.4,1.57c-1.41.07-2.7.21-4,.2-6,0-12.1-.09-18.15-.12-.58,0-.74-.19-.83-.76C27.5,47.09,26.75,42.5,26,37.9a5.43,5.43,0,0,0-.24-.75h-.23C24.7,42.22,23.86,47.28,23,52.46Z"/>
  <path class="cls-1" d="M37,12.37a23.64,23.64,0,0,1-1.44,7.68c-2.49,6.66-8.47,8.9-14.49,6.19-3-1.33-4.59-4-5.52-7A25.48,25.48,0,0,1,14.44,9.13,9.73,9.73,0,0,1,21.54.65a13.46,13.46,0,0,1,10.34.85,8.54,8.54,0,0,1,4.54,5.56,49.08,49.08,0,0,1,.8,5.28Z"/>
</svg>
