<svg xmlns="http://www.w3.org/2000/svg" viewBox="0 0 54.29 45.8">
  <path class="cls-1" d="M27.17,45.79c-7.36,0-14.71,0-22.07,0a7.62,7.62,0,0,1-2.59-.48A3.62,3.62,0,0,1,.16,40.71a9.7,9.7,0,0,1,1-2.39c3.34-5.54,6.72-11,10.08-16.57Q17,12.41,22.66,3.07a8.68,8.68,0,0,1,1.43-1.76,4.23,4.23,0,0,1,6.22.1,16.65,16.65,0,0,1,2.11,2.88Q40.82,18,49.18,31.8c1.38,2.26,2.79,4.49,4.1,6.79a8.19,8.19,0,0,1,1,2.68,3.57,3.57,0,0,1-2.76,4.15,13.78,13.78,0,0,1-3.27.36c-7,0-14,0-21,0ZM30.6,21.23c0-2.34,0-4.67,0-7a2.18,2.18,0,0,0-2.39-2.35H26.08a2.16,2.16,0,0,0-2.32,2.36q0,7,0,14a2.18,2.18,0,0,0,2.31,2.32c.69,0,1.38,0,2.07,0a2.24,2.24,0,0,0,2.47-2.5ZM27.15,33.92a3.44,3.44,0,1,0,3.46,3.39A3.43,3.43,0,0,0,27.15,33.92Z"/>
</svg>
