<svg style="background: black;" class="svg-logo" version="1.1" viewBox="0 0 720 500" xmlns="http://www.w3.org/2000/svg" xmlns:xlink="http://www.w3.org/1999/xlink">
  <defs>
    <linearGradient id="Gradient1">
      <stop offset="0%" stop-color="#11AD00"/>
      <stop offset="100%" stop-color="#F0FB00"/>
    </linearGradient>
  </defs>
  <path class="svg-logo__logo" d="M200 0 L100 180 L0 0 L141 0 L100 73 L85 47 L97 26 L44 26 L100 126 L170 0 Z" fill="url(#Gradient1)"/>
  <text class="svg-logo__name" x="480" y="150" font-size="200" font-family="Times New Roman, Arial, sans-serif" font-weight="bold" text-anchor="middle" fill="url(#Gradient1)">УРАЛ</text>
  <text x="375" y="235" font-size="60" font-family="Times New Roman, Arial, sans-serif" font-weight="bold" text-anchor="middle" fill="url(#Gradient1)">Инжиниринговая компания</text>
  <symbol id="phone" viewBox="0 0 512.021 512.021">
    <g fill="#11AD00">
      <path d="m367.988 512.021c-16.528 0-32.916-2.922-48.941-8.744-70.598-25.646-136.128-67.416-189.508-120.795s-95.15-118.91-120.795-189.508c-8.241-22.688-10.673-46.108-7.226-69.612 3.229-22.016 11.757-43.389 24.663-61.809 12.963-18.501 30.245-33.889 49.977-44.5 21.042-11.315 44.009-17.053 68.265-17.053 7.544 0 14.064 5.271 15.645 12.647l25.114 117.199c1.137 5.307-.494 10.829-4.331 14.667l-42.913 42.912c40.482 80.486 106.17 146.174 186.656 186.656l42.912-42.913c3.838-3.837 9.361-5.466 14.667-4.331l117.199 25.114c7.377 1.581 12.647 8.101 12.647 15.645 0 24.256-5.738 47.224-17.054 68.266-10.611 19.732-25.999 37.014-44.5 49.977-18.419 12.906-39.792 21.434-61.809 24.663-6.899 1.013-13.797 1.518-20.668 1.519zm-236.349-479.321c-31.995 3.532-60.393 20.302-79.251 47.217-21.206 30.265-26.151 67.49-13.567 102.132 49.304 135.726 155.425 241.847 291.151 291.151 34.641 12.584 71.866 7.64 102.132-13.567 26.915-18.858 43.685-47.256 47.217-79.251l-95.341-20.43-44.816 44.816c-4.769 4.769-12.015 6.036-18.117 3.168-95.19-44.72-172.242-121.772-216.962-216.962-2.867-6.103-1.601-13.349 3.168-18.117l44.816-44.816z"/>
    </g>
  </symbol>
  <use xlink:href="#phone" x="-100" y="275" width="60" height="60"/>
  <text x="405" y="320" font-size="60" font-family="Times New Roman, Arial, sans-serif" font-weight="bold" text-anchor="middle" fill="#11AD00">8(937)317-13-29, 8(937)309-25-25</text>
  <symbol id="site" viewBox="0 0 512 512">
    <g fill="#11AD00">
      <path d="m437.019531 74.980469c-48.351562-48.351563-112.636719-74.980469-181.015625-74.980469h-.007812c-68.378906 0-132.664063 26.628906-181.015625 74.980469-48.351563 48.351562-74.980469 112.640625-74.980469 181.019531s26.628906 132.667969 74.980469 181.019531c48.351562 48.351563 112.640625 74.980469 181.019531 74.980469s132.667969-26.628906 181.019531-74.980469c48.351563-48.351562 74.980469-112.640625 74.980469-181.019531s-26.628906-132.667969-74.980469-181.019531zm16.722657 290.335937h-74.925782c10.039063-29.414062 16.085938-61.261718 17.496094-94.316406h85.175781c-2.238281 34.03125-12.042969 66.023438-27.746093 94.316406zm-197.742188 114.464844c-31.929688-19-58.410156-48.449219-77.457031-84.464844h154.914062c-19.046875 36.015625-45.527343 65.464844-77.457031 84.464844zm-91.015625-114.464844c-11.03125-28.941406-17.71875-60.898437-19.265625-94.316406h220.5625c-1.546875 33.417969-8.238281 65.375-19.269531 94.316406zm-134.472656-94.316406h85.175781c1.410156 33.054688 7.457031 64.902344 17.496094 94.316406h-74.925782c-15.703124-28.292968-25.507812-60.285156-27.746093-94.316406zm27.746093-124.316406h74.925782c-10.039063 29.414062-16.085938 61.261718-17.496094 94.316406h-85.175781c2.238281-34.03125 12.042969-66.023438 27.746093-94.316406zm197.742188-114.464844c31.929688 19 58.410156 48.449219 77.457031 84.464844h-154.914062c19.046875-36.015625 45.527343-65.464844 77.457031-84.464844zm91.015625 114.464844c11.03125 28.941406 17.71875 60.898437 19.265625 94.316406h-220.5625c1.546875-33.417969 8.238281-65.375 19.269531-94.316406zm134.472656 94.316406h-85.175781c-1.410156-33.054688-7.457031-64.902344-17.496094-94.316406h74.925782c15.703124 28.292968 25.507812 60.285156 27.746093 94.316406zm-114.683593-124.316406c-14.257813-30.796875-33.226563-58.011719-56-79.949219 49.429687 12.359375 92.472656 41.027344 123.03125 79.949219zm-165.609376-79.949219c-22.773437 21.9375-41.742187 49.152344-56 79.949219h-67.03125c30.558594-38.921875 73.601563-67.589844 123.03125-79.949219zm-56 358.582031c14.257813 30.796875 33.226563 58.011719 56 79.949219-49.429687-12.359375-92.472656-41.027344-123.03125-79.949219zm165.609376 79.949219c22.773437-21.9375 41.742187-49.15625 56-79.949219h67.03125c-30.558594 38.921875-73.601563 67.589844-123.03125 79.949219zm0 0"/>
    </g>
  </symbol>
  <use xlink:href="#site" x="-100" y="355" width="60" height="60"/>
  <text x="120" y="400" font-size="60" font-family="Times New Roman, Arial, sans-serif" font-weight="bold" text-anchor="middle" fill="#11AD00">pto-ural.ru</text>
  <symbol id="mail" viewBox="0 0 512 512">
    <g fill="#11AD00">
      <path d="M467,76H45C20.137,76,0,96.262,0,121v270c0,24.885,20.285,45,45,45h422c24.655,0,45-20.03,45-45V121
  			C512,96.306,491.943,76,467,76z M460.698,106c-9.194,9.145-167.415,166.533-172.878,171.967c-8.5,8.5-19.8,13.18-31.82,13.18
  			s-23.32-4.681-31.848-13.208C220.478,274.284,64.003,118.634,51.302,106H460.698z M30,384.894V127.125L159.638,256.08L30,384.894z
  			 M51.321,406l129.587-128.763l22.059,21.943c14.166,14.166,33,21.967,53.033,21.967c20.033,0,38.867-7.801,53.005-21.939
  			l22.087-21.971L460.679,406H51.321z M482,384.894L352.362,256.08L482,127.125V384.894z"/>
    </g>
  </symbol>
  <use xlink:href="#mail" x="310" y="355" width="60" height="60"/>
  <text x="610" y="400" font-size="60" font-family="Times New Roman, Arial, sans-serif" font-weight="bold" text-anchor="middle" fill="#11AD00">info@pto-ural.ru</text>
</svg>
