<svg xmlns="http://www.w3.org/2000/svg" viewBox="0 0 28.04 28.04"><polygon class="cls-1" points="12.7 17.49 10.93 15.83 12.97 13.66 12.97 8.14 15.4 8.14 15.4 14.63 12.7 17.49"/><path class="cls-1" d="M24.86,22.9c.13-.16.25-.33.37-.49s.31-.4.45-.61.25-.4.37-.61.23-.37.33-.56.21-.43.31-.64.2-.4.28-.61.16-.42.23-.63.17-.44.23-.66.11-.43.17-.64.12-.46.17-.69.07-.5.11-.75.07-.4.09-.61C28,15,28,14.49,28,14s0-.93-.07-1.38c0-.21-.06-.41-.09-.62s-.06-.5-.11-.74-.11-.46-.17-.69-.1-.43-.17-.64-.15-.44-.23-.67-.14-.42-.23-.63-.19-.4-.28-.6-.2-.43-.31-.64-.22-.38-.33-.56-.24-.42-.37-.61-.3-.41-.45-.61-.24-.34-.37-.5q-.43-.52-.93-1h0a12.9,12.9,0,0,0-1-.93l-.49-.37c-.2-.15-.4-.31-.61-.45s-.4-.25-.61-.37-.37-.23-.56-.33L20,1.35c-.2-.1-.4-.2-.61-.28a6.56,6.56,0,0,0-.62-.23L18.09.6,17.45.44,16.76.27C16.52.22,16.27.19,16,.16S15.61.09,15.4.07C15,0,14.49,0,14,0s-.93,0-1.38.07c-.21,0-.41.06-.62.09s-.5.06-.74.11l-.69.17L10,.6,9.28.84c-.21.07-.42.14-.63.23s-.4.18-.6.28l-.64.31c-.19.1-.38.22-.56.33s-.42.24-.61.37-.41.3-.61.45-.34.24-.5.37q-.52.44-1,.93h0q-.5.5-.93,1c-.13.16-.25.33-.37.49s-.31.41-.45.62-.25.4-.37.6-.23.38-.33.57-.21.42-.31.63-.2.41-.28.62a6.56,6.56,0,0,0-.23.62C.76,9.5.67,9.72.6,10s-.11.42-.16.64-.12.46-.17.69-.08.49-.11.74-.07.41-.09.62C0,13.09,0,13.55,0,14S0,15,.07,15.4c0,.21.06.41.09.62s.06.5.11.74.11.46.17.69.1.43.16.64.16.45.24.67a6.56,6.56,0,0,0,.23.62c.08.21.19.41.28.61s.2.43.31.64.22.38.33.57.24.41.37.6.3.41.45.62.24.33.37.48a12.9,12.9,0,0,0,.93,1h0a14,14,0,0,0,19.82,0h0A12.9,12.9,0,0,0,24.86,22.9ZM14,22.31a8.43,8.43,0,1,1,8.43-8.42A8.43,8.43,0,0,1,14,22.31Z"/></svg>
