<svg xmlns="http://www.w3.org/2000/svg" viewBox="0 0 59.43 58.64"><path class="cls-1" d="M30.12,58.64a29.34,29.34,0,0,1-15.56-4.46L0,58.24,3.15,40.85a29.32,29.32,0,1,1,29.7,17.67Q31.49,58.64,30.12,58.64Zm-14.86-9,.79.54a25.19,25.19,0,1,0,11.7-46A25.19,25.19,0,0,0,7.17,39.74l.27.59L5.24,52.49Z"/><path class="cls-1" d="M36.55,46.15l-.29-.07a11.3,11.3,0,0,1-4.35-.9C24.28,42,18.7,36.19,15.31,28a20.9,20.9,0,0,1-.72-2.2c-.09-.31-.18-.63-.28-.95l0-.16-.29-2,0-.3a8.78,8.78,0,0,1,2-5.78,9.57,9.57,0,0,1,3.52-2.72l.28-.08L21,13.67l.13,0A3.85,3.85,0,0,1,24.22,16c.72,1.48,1.45,3,2.09,4.59a3.18,3.18,0,0,1-1.24,4.1c-.61.43-1.24.81-1.85,1.18l-.59.36A31.33,31.33,0,0,0,32.09,37h0A18.85,18.85,0,0,1,34,34.66a3.19,3.19,0,0,1,4-.58l.72.41a38.28,38.28,0,0,1,3.68,2.26,4.26,4.26,0,0,1,2,2.81,4.41,4.41,0,0,1-1.23,3.35,8.72,8.72,0,0,1-4,2.73l-.21.08-.39.14ZM36.33,44a1.32,1.32,0,0,1,.3,0l1.46-.22.36-.14a6.57,6.57,0,0,0,3.07-2.08,2.59,2.59,0,0,0,.79-1.78,2.37,2.37,0,0,0-1.12-1.4,36,36,0,0,0-3.48-2.14L37,35.88a1.14,1.14,0,0,0-1.53.23,17.37,17.37,0,0,0-1.67,2.11,2.08,2.08,0,0,1-1.33,1,2,2,0,0,1-1.5-.46,33.26,33.26,0,0,1-10.2-11.69,1.77,1.77,0,0,1,.75-2.6l.65-.4c.6-.36,1.18-.71,1.72-1.1.71-.5.83-.88.53-1.63-.62-1.52-1.34-3-2-4.48A1.81,1.81,0,0,0,21,15.76l-.69.1a7.41,7.41,0,0,0-2.64,2.08,6.62,6.62,0,0,0-1.55,4.48,1.61,1.61,0,0,1,0,.35l.23,1.53.27.92a20,20,0,0,0,.64,2c3.22,7.78,8.28,13,15.49,16.07A9.17,9.17,0,0,0,36.3,44Z"/></svg>
