<svg xmlns="http://www.w3.org/2000/svg" xmlns:xlink="http://www.w3.org/1999/xlink"><defs><linearGradient id="a"><stop offset="0%" stop-color="#11AD00"/><stop offset="100%" stop-color="#F0FB00"/></linearGradient></defs><symbol id="adress" viewBox="0 0 28.04 33.85"><path class="cls-1" d="M23.93 4.11a14 14 0 00-19.82 0 14 14 0 000 19.82L14 33.85l9.91-9.92a14 14 0 00.02-19.82zM14 22.31a8.43 8.43 0 118.43-8.43A8.43 8.43 0 0114 22.31z"/></symbol><symbol id="logo" viewBox="0 0 200 180"><path d="M200 0L100 180 0 0h141l-41 73-15-26 12-21H44l56 100L170 0z" fill="url(#a)"/></symbol><symbol id="mail" viewBox="0 0 27.11 17.81"><path class="cls-1" d="M26.72 0H.47l13.22 10.95L26.72 0z"/><path class="cls-1" d="M13.71 16.17L0 4.83v12.98h27.11V4.91l-13.4 11.26z"/></symbol><symbol id="people1" viewBox="0 0 188 174.63"><circle cx="93.3" cy="16.8" r="16.8"/><path d="M81.83 174.63a11.48 11.48 0 0011.47-11.48 11.48 11.48 0 0011.47 11.48 11.48 11.48 0 0011.48-11.48v-55.08H119a13.08 13.08 0 0013-11.92 11.17 11.17 0 00.06-1.17V53.51A13.07 13.07 0 00119 40.43h-15.14L93.22 57.07 82.74 40.43H67.57a13.08 13.08 0 00-13.08 13.08V95c0 .43 0 .85.06 1.27a13.09 13.09 0 0013 11.82h2.78v55.08a11.48 11.48 0 0011.5 11.46z"/><circle cx="32.78" cy="18.58" r="14.19" opacity=".5"/><path d="M47.38 53.51a20.12 20.12 0 016.06-14.4H11.05a11.05 11.05 0 00-11 11v35a11.06 11.06 0 0011 11.14h2.35v46.53a9.69 9.69 0 009.69 9.69 9.69 9.69 0 009.69-9.69 9.69 9.69 0 009.7 9.69 9.69 9.69 0 009.69-9.69V108a20.07 20.07 0 01-4.79-13z" opacity=".5"/><circle cx="155.22" cy="18.58" r="14.19" transform="rotate(-67.5 155.22 18.573)" opacity=".5"/><path d="M177 39.11h-43.83a20.11 20.11 0 016.05 14.39V95a20.1 20.1 0 01-3.38 11.17v36.63a9.69 9.69 0 009.69 9.69 9.69 9.69 0 009.69-9.69 9.69 9.69 0 009.69 9.69 9.69 9.69 0 009.69-9.69V96.25h2.4a11 11 0 0011-11.06v-35a11 11 0 00-11-11.08z" opacity=".5"/></symbol><symbol id="phone" viewBox="0 0 17.81 27.11"><path class="cls-1" d="M0 0v27.11h17.81V0zm8.9 25.76A1.74 1.74 0 1110.64 24a1.74 1.74 0 01-1.74 1.76zM13.7 21H4.11V3.93h9.59z"/></symbol><symbol id="schemes1" viewBox="0 0 38.04 57.91"><path class="cls-1" d="M0 4.53v48.85a4.53 4.53 0 004.53 4.53h29A4.53 4.53 0 0038 53.38V4.53A4.53 4.53 0 0033.51 0h-29A4.53 4.53 0 000 4.53zM19 55a3.72 3.72 0 113.72-3.72A3.73 3.73 0 0119 55zm10.26-10.11H8.77V8.4h20.49z"/></symbol><symbol id="schemes2" viewBox="0 0 62.88 66.51"><path class="cls-1" d="M17.5 39.41a23.38 23.38 0 00-.4 4.21A22.89 22.89 0 1040 20.73h-.5c0-.33.06-.65.06-1a19.78 19.78 0 10-22 19.63zm39.43 4.21A16.95 16.95 0 1140 26.68a17 17 0 0116.93 16.94zM19.78 6A13.84 13.84 0 0133.6 19.78a13.53 13.53 0 01-.14 1.91 23 23 0 00-14 11.88A13.81 13.81 0 0119.78 6z"/><path class="cls-1" d="M37.46 45.19v9.14h5.71V32.92l-11.44 9.65 3.67 4.35 2.06-1.73zM17.95 20.9v6.59h4.11V12.06l-8.25 6.95 2.65 3.15 1.49-1.26z"/></symbol><symbol id="schemes3" viewBox="0 0 63.15 60.2"><path class="cls-1" d="M42.28 0c.5.09 1 .16 1.51.27A7.72 7.72 0 0149.61 7c.13 1.88.07 3.77.08 5.66v9.22a2.61 2.61 0 01-1.62 2.56 2.59 2.59 0 01-3.59-2.21V8a2.65 2.65 0 00-2-2.7 3.13 3.13 0 00-.75-.07H8A2.62 2.62 0 005.22 8v44.13A2.65 2.65 0 008.05 55h33.6a2.67 2.67 0 002.82-2.85v-4.81a2.58 2.58 0 012.59-2.66 2.63 2.63 0 012.63 2.68v5a7.89 7.89 0 01-6.88 7.78l-.53.08H7.41a1.11 1.11 0 00-.26-.07 7.78 7.78 0 01-6.69-5.21C.25 54.31.15 53.64 0 53V7.14A.6.6 0 00.06 7 7.8 7.8 0 015.68.34C6.25.19 6.83.11 7.41 0z"/><path class="cls-1" d="M63.15 23.68a1.89 1.89 0 00-.31.25L45.17 41.58a1.29 1.29 0 01-.56.36L38 44h-.23c.1-.6.2-1.17.3-1.74.31-1.78.62-3.57 1-5.35a1.17 1.17 0 01.32-.61Q45.7 30 52 23.64l5.57-5.57 5.55 5.54zM22.67 40.88c.63-.69 1.19-1.34 1.79-1.94a15.88 15.88 0 011.92-1.75 2.13 2.13 0 013.41 1 5.27 5.27 0 01.41 2.42V41l.7-.29a1.3 1.3 0 011.63.58A1.26 1.26 0 0132.1 43a8.81 8.81 0 01-3 1.13 1.57 1.57 0 01-1.79-1.85c.11-.69.22-1.37.31-2.06a2.46 2.46 0 00-.06-.53l-.12-.08-.78.89c-.86.93-1.72 1.87-2.59 2.79a3.05 3.05 0 01-1.59 1 1.73 1.73 0 01-2-1 7.5 7.5 0 01-.48-2.56c-.08-1.11-.18-2.22-.27-3.33l-.13-.07-.55.62a44 44 0 00-4.32 6.25c-.18.31-.35.62-.53.92a1.34 1.34 0 01-1.82.5 1.31 1.31 0 01-.46-1.8c.5-.9 1-1.8 1.57-2.69a30.08 30.08 0 013.39-4.69 10.87 10.87 0 011.95-1.7A2 2 0 0122.08 36a31.39 31.39 0 01.5 3.52c.05.42.05.84.09 1.36zM39.21 15.74v2.57H10.48v-2.57zM10.47 23.53V21H39.2v2.57zM34 26.18v2.6H10.47v-2.6z"/></symbol><symbol id="schemes4" viewBox="0 0 47.1 59.99"><path class="cls-1" d="M37.08 60h-26.6c-.88 0-1.77-.07-2.66-.08a6.82 6.82 0 01-3.91-1.32A8.34 8.34 0 010 51.35V38.1 14.35A.81.81 0 01.06 14a15.67 15.67 0 012.55-4.12 44.44 44.44 0 015.7-5.44A26.26 26.26 0 0114.1.83a7.7 7.7 0 013.4-.78 7.13 7.13 0 00.79 0h16.86c1.21 0 2.43 0 3.64.05A7.4 7.4 0 0141 .35a9.08 9.08 0 015 4.05 6.16 6.16 0 011 3c0 .95.07 1.91.07 2.87v21.67q0 9.66-.07 19.31a10.14 10.14 0 01-.26 2.58c-.79 2.88-4 6.32-8.19 6.1-.47-.01-.97.07-1.47.07zM4.22 14.94v.44q0 18.56.08 37.12a.91.91 0 000 .33A5.28 5.28 0 006.07 55a4.11 4.11 0 002.35.78c6.14 0 12.28 0 18.42-.06h12.74a1.07 1.07 0 00.43-.09A5.17 5.17 0 0042.67 53a1.19 1.19 0 00.13-.49v-4.56V7.83a1.52 1.52 0 00-.1-.47 5 5 0 00-2.69-2.9 1.55 1.55 0 00-.47-.12H17.48c-.4 0-.4 0-.42.39-.08 1.89-.07 3.8-.28 5.68a4.75 4.75 0 01-4.39 4.42 34.18 34.18 0 01-4.06.19C7 15 5.65 14.94 4.22 14.94z"/><path class="cls-1" d="M37.59 49.19l-2.49-.92c-.56-.21-1.12-.43-1.69-.62a.72.72 0 00-.46 0l-3.78 1.4c-.09 0-.19.06-.34.11.08-.57.15-1.1.24-1.62.32-1.81.64-3.61.95-5.42a.66.66 0 00-.13-.45 8.18 8.18 0 01-1.49-2 5.16 5.16 0 011.28-6.08A4.83 4.83 0 0133 32.22a5.22 5.22 0 015.23 3.69 5.07 5.07 0 01-1.37 5.38 1.24 1.24 0 00-.41 1.26c.39 2.06.72 4.13 1.08 6.2.03.12.03.25.06.44zM23.52 28.87H9.59a.74.74 0 01-.71-.43 2.27 2.27 0 01-.05-2.09.78.78 0 01.78-.48c2.42 0 4.85-.08 7.28-.09h17.78c1 0 2 .06 2.94.09a.71.71 0 01.68.47 2.59 2.59 0 010 2 .84.84 0 01-.86.56c-1.22 0-2.44.08-3.67.08H23.52zM23.38 19.3h11.87c.81 0 1.61.07 2.42.1a.64.64 0 01.58.38 2.46 2.46 0 010 2.18.63.63 0 01-.57.4c-.7 0-1.41.1-2.11.1H12.26c-.85 0-1.7-.05-2.54-.05a.93.93 0 01-1-.7 2.33 2.33 0 010-1.76.79.79 0 01.81-.55l13.78-.16zM16.41 35.32H9.59a.72.72 0 01-.68-.44 2.39 2.39 0 01-.07-2.07.79.79 0 01.79-.51l9.91-.09h3.73a1 1 0 01.94.57 2.23 2.23 0 010 2.14.74.74 0 01-.5.34 19.1 19.1 0 01-2.13.17h-5.17zM16.56 48.27l-6.77-.1c-.67 0-.9-.19-1.08-.84a2.67 2.67 0 010-1.51.82.82 0 01.91-.69c1.61 0 3.22-.06 4.83-.07h9a.65.65 0 01.4.16 2 2 0 010 2.88.7.7 0 01-.42.16h-6.87zM16.42 41.75H9.93c-.74 0-1-.08-1.27-1.1a2.53 2.53 0 010-.91c.14-.81.41-1 1.23-1.05l11.44-.09h1.93a.91.91 0 01.91.53 2.24 2.24 0 010 2.2.72.72 0 01-.48.32 14.9 14.9 0 01-1.88.16h-5.42z"/></symbol><symbol id="schemes5" viewBox="0 0 51.19 52.57"><path class="cls-1" d="M0 52.46a14.24 14.24 0 01.85-2.31C3.64 45.4 6.49 40.69 9.31 36a6.41 6.41 0 013.12-2.69A48.38 48.38 0 0017.21 31a40.36 40.36 0 003.56-2.56c1.11 1.09 2.29 2.21 3.43 3.38 1.46 1.48 1.44 1.49 2.87.06l3-3c.18-.18.4-.34.68-.58a17 17 0 007.19 4.43 9.8 9.8 0 015.13 4.79c1.85 3.22 3.82 6.36 5.71 9.56.72 1.2 1.4 2.42 2 3.66a7.63 7.63 0 01.4 1.57c-1.41.07-2.7.21-4 .2-6 0-12.1-.09-18.15-.12-.58 0-.74-.19-.83-.76-.7-4.54-1.45-9.13-2.2-13.73a5.43 5.43 0 00-.24-.75h-.23c-.83 5.07-1.67 10.13-2.53 15.31zM37 12.37a23.64 23.64 0 01-1.44 7.68c-2.49 6.66-8.47 8.9-14.49 6.19-3-1.33-4.59-4-5.52-7a25.48 25.48 0 01-1.11-10.11 9.73 9.73 0 017.1-8.48 13.46 13.46 0 0110.34.85 8.54 8.54 0 014.54 5.56 49.08 49.08 0 01.8 5.28z"/></symbol><symbol id="schemes6" viewBox="0 0 54.29 45.8"><path class="cls-1" d="M27.17 45.79H5.1a7.62 7.62 0 01-2.59-.48 3.62 3.62 0 01-2.35-4.6 9.7 9.7 0 011-2.39c3.34-5.54 6.72-11 10.08-16.57Q17 12.41 22.66 3.07a8.68 8.68 0 011.43-1.76 4.23 4.23 0 016.22.1 16.65 16.65 0 012.11 2.88Q40.82 18 49.18 31.8c1.38 2.26 2.79 4.49 4.1 6.79a8.19 8.19 0 011 2.68 3.57 3.57 0 01-2.76 4.15 13.78 13.78 0 01-3.27.36h-21zm3.43-24.56v-7a2.18 2.18 0 00-2.39-2.35h-2.13a2.16 2.16 0 00-2.32 2.36v14a2.18 2.18 0 002.31 2.32h2.07a2.24 2.24 0 002.47-2.5zm-3.45 12.69a3.44 3.44 0 103.46 3.39 3.43 3.43 0 00-3.46-3.39z"/></symbol><symbol id="time" viewBox="0 0 28.04 28.04"><path class="cls-1" d="M12.7 17.49l-1.77-1.66 2.04-2.17V8.14h2.43v6.49l-2.7 2.86z"/><path class="cls-1" d="M24.86 22.9c.13-.16.25-.33.37-.49s.31-.4.45-.61.25-.4.37-.61.23-.37.33-.56.21-.43.31-.64.2-.4.28-.61.16-.42.23-.63.17-.44.23-.66.11-.43.17-.64.12-.46.17-.69.07-.5.11-.75.07-.4.09-.61c.03-.4.03-.91.03-1.4s0-.93-.07-1.38c0-.21-.06-.41-.09-.62s-.06-.5-.11-.74-.11-.46-.17-.69-.1-.43-.17-.64-.15-.44-.23-.67-.14-.42-.23-.63-.19-.4-.28-.6-.2-.43-.31-.64-.22-.38-.33-.56-.24-.42-.37-.61-.3-.41-.45-.61-.24-.34-.37-.5q-.43-.52-.93-1a12.9 12.9 0 00-1-.93l-.49-.37c-.2-.15-.4-.31-.61-.45s-.4-.25-.61-.37-.37-.23-.56-.33L20 1.35c-.2-.1-.4-.2-.61-.28a6.56 6.56 0 00-.62-.23L18.09.6l-.64-.16-.69-.17c-.24-.05-.49-.08-.76-.11s-.39-.07-.6-.09C15 0 14.49 0 14 0s-.93 0-1.38.07c-.21 0-.41.06-.62.09s-.5.06-.74.11l-.69.17L10 .6l-.72.24c-.21.07-.42.14-.63.23s-.4.18-.6.28l-.64.31c-.19.1-.38.22-.56.33s-.42.24-.61.37-.41.3-.61.45-.34.24-.5.37q-.52.44-1 .93-.5.5-.93 1c-.13.16-.25.33-.37.49s-.31.41-.45.62-.25.4-.37.6-.23.38-.33.57-.21.42-.31.63-.2.41-.28.62a6.56 6.56 0 00-.23.62c-.1.24-.19.46-.26.74s-.11.42-.16.64-.12.46-.17.69-.08.49-.11.74-.07.41-.09.62C0 13.09 0 13.55 0 14s0 1 .07 1.4c0 .21.06.41.09.62s.06.5.11.74.11.46.17.69.1.43.16.64.16.45.24.67a6.56 6.56 0 00.23.62c.08.21.19.41.28.61s.2.43.31.64.22.38.33.57.24.41.37.6.3.41.45.62.24.33.37.48a12.9 12.9 0 00.93 1 14 14 0 0019.82 0 12.9 12.9 0 00.93-1zM14 22.31a8.43 8.43 0 118.43-8.42A8.43 8.43 0 0114 22.31z"/></symbol><symbol id="whatsapp" viewBox="0 0 59.43 58.64"><path class="cls-1" d="M30.12 58.64a29.34 29.34 0 01-15.56-4.46L0 58.24l3.15-17.39a29.32 29.32 0 1129.7 17.67q-1.36.12-2.73.12zm-14.86-9l.79.54a25.19 25.19 0 1011.7-46A25.19 25.19 0 007.17 39.74l.27.59-2.2 12.16z"/><path class="cls-1" d="M36.55 46.15l-.29-.07a11.3 11.3 0 01-4.35-.9C24.28 42 18.7 36.19 15.31 28a20.9 20.9 0 01-.72-2.2c-.09-.31-.18-.63-.28-.95v-.16l-.29-2v-.3a8.78 8.78 0 012-5.78 9.57 9.57 0 013.52-2.72l.28-.08 1.18-.14h.13A3.85 3.85 0 0124.22 16c.72 1.48 1.45 3 2.09 4.59a3.18 3.18 0 01-1.24 4.1c-.61.43-1.24.81-1.85 1.18l-.59.36A31.33 31.33 0 0032.09 37 18.85 18.85 0 0134 34.66a3.19 3.19 0 014-.58l.72.41a38.28 38.28 0 013.68 2.26 4.26 4.26 0 012 2.81 4.41 4.41 0 01-1.23 3.35 8.72 8.72 0 01-4 2.73l-.21.08-.39.14zM36.33 44a1.32 1.32 0 01.3 0l1.46-.22.36-.14a6.57 6.57 0 003.07-2.08 2.59 2.59 0 00.79-1.78 2.37 2.37 0 00-1.12-1.4 36 36 0 00-3.48-2.14l-.71-.36a1.14 1.14 0 00-1.53.23 17.37 17.37 0 00-1.67 2.11 2.08 2.08 0 01-1.33 1 2 2 0 01-1.5-.46 33.26 33.26 0 01-10.2-11.69 1.77 1.77 0 01.75-2.6l.65-.4c.6-.36 1.18-.71 1.72-1.1.71-.5.83-.88.53-1.63-.62-1.52-1.34-3-2-4.48a1.81 1.81 0 00-1.42-1.1l-.69.1a7.41 7.41 0 00-2.64 2.08 6.62 6.62 0 00-1.55 4.48 1.61 1.61 0 010 .35l.23 1.53.27.92a20 20 0 00.64 2c3.22 7.78 8.28 13 15.49 16.07a9.17 9.17 0 003.55.71z"/></symbol></svg>