<svg xmlns="http://www.w3.org/2000/svg" xmlns:xlink="http://www.w3.org/1999/xlink"><defs><linearGradient id="a"><stop offset="0%" stop-color="#11AD00"/><stop offset="100%" stop-color="#F0FB00"/></linearGradient><linearGradient id="a"><stop offset="0%" stop-color="#11AD00"/><stop offset="100%" stop-color="#F0FB00"/></linearGradient></defs><symbol id="clock" viewBox="0 0 384 384"><path d="M192 384c105.863 0 192-86.129 192-192S297.863 0 192 0 0 86.129 0 192s86.137 192 192 192zM176 32.809V48c0 8.832 7.168 16 16 16s16-7.168 16-16V32.809C283.473 40.344 343.664 100.527 351.191 176H336c-8.832 0-16 7.168-16 16s7.168 16 16 16h15.191C343.664 283.473 283.473 343.656 208 351.191V336c0-8.832-7.168-16-16-16s-16 7.168-16 16v15.191C100.527 343.656 40.336 283.473 32.809 208H48c8.832 0 16-7.168 16-16s-7.168-16-16-16H32.809C40.336 100.527 100.527 40.344 176 32.809zm0 0"/><path d="M200 208h80c8.832 0 16-7.168 16-16s-7.168-16-16-16h-72v-48c0-8.832-7.168-16-16-16s-16 7.168-16 16v56c0 13.23 10.77 24 24 24zm0 0"/></symbol><symbol id="clock1" viewBox="0 0 384 384"><path d="M336 0H48C21.527 0 0 21.527 0 48v288c0 26.473 21.527 48 48 48h288c26.473 0 48-21.527 48-48V48c0-26.473-21.527-48-48-48zm0 352H208v-16c0-8.832-7.168-16-16-16s-16 7.168-16 16v16H48c-8.824 0-16-7.176-16-16V208h16c8.832 0 16-7.168 16-16s-7.168-16-16-16H32V48c0-8.824 7.176-16 16-16h128v16c0 8.832 7.168 16 16 16s16-7.168 16-16V32h128c8.824 0 16 7.176 16 16v128h-16c-8.832 0-16 7.168-16 16s7.168 16 16 16h16v128c0 8.824-7.176 16-16 16zm0 0"/><path d="M208 185.367V104c0-8.832-7.168-16-16-16s-16 7.168-16 16v88c0 4.238 1.688 8.313 4.688 11.313l80 80C263.808 286.44 267.901 288 272 288s8.191-1.559 11.313-4.688c6.246-6.25 6.246-16.375 0-22.625zm0 0"/></symbol><symbol id="instagram" viewBox="0 0 24 24"><path d="M4.75 24h14.5A4.756 4.756 0 0024 19.25V4.75A4.756 4.756 0 0019.25 0H4.75A4.756 4.756 0 000 4.75v14.5A4.756 4.756 0 004.75 24zM1.5 4.75A3.254 3.254 0 014.75 1.5h14.5a3.254 3.254 0 013.25 3.25v14.5a3.254 3.254 0 01-3.25 3.25H4.75a3.254 3.254 0 01-3.25-3.25z"/><path d="M12 18.13c3.38 0 6.13-2.75 6.13-6.13S15.38 5.87 12 5.87 5.87 8.62 5.87 12s2.75 6.13 6.13 6.13zm0-10.76c2.553 0 4.63 2.077 4.63 4.63s-2.077 4.63-4.63 4.63S7.37 14.553 7.37 12 9.447 7.37 12 7.37zM18.358 7.362c.986 0 1.729-.74 1.729-1.721 0-1.023-.782-1.721-1.728-1.721-.986 0-1.729.74-1.729 1.721 0 1.021.778 1.721 1.728 1.721zm.177-1.886c.316.279-.405.618-.405.166 0-.27.367-.2.405-.166z"/></symbol><symbol id="instagram1" viewBox="-21 -21 682.667 682.667"><path d="M0 132.977v374.046C0 580.465 59.535 640 132.977 640h374.046C580.465 640 640 580.465 640 507.023V132.977C640 59.535 580.465 0 507.023 0H132.977C59.535 0 0 59.535 0 132.977zm387.793 368.359C229.938 555.8 84.199 410.062 138.664 252.207c18.352-53.203 60.336-95.191 113.54-113.543C410.062 84.2 555.8 229.938 501.335 387.797 482.984 441 441 482.984 387.793 501.336zm154.281-374.86c-2.511 13.153-13.394 20.805-24.652 20.805-6.852 0-13.836-2.828-19.184-8.965a15.2 15.2 0 01-1.304-1.73c-5.52-8.438-5.692-18.461-1-26.59 3.32-5.754 8.68-9.863 15.097-11.582 6.41-1.727 13.114-.84 18.86 2.484 8.132 4.688 12.992 13.457 12.437 23.512-.039.688-.121 1.387-.254 2.067zm0 0"/><path d="M320 164.523c-85.734 0-155.477 69.743-155.477 155.477S234.266 475.477 320 475.477 475.477 405.734 475.477 320 405.734 164.523 320 164.523zm0 0"/></symbol><symbol id="logo" viewBox="0 0 720 180"><path class="svg-logo__logo" d="M200 0L100 180 0 0h141l-41 73-15-26 12-21H44l56 100L170 0z" fill="url(#a)"/><text class="svg-logo__name" x="450" y="120" font-size="100" font-family="Times New Roman, Arial, sans-serif" font-weight="bold" text-anchor="middle" fill="url(#a)">&#x41E;&#x41E;&#x41E; &#x423;&#x420;&#x410;&#x41B;</text></symbol><symbol id="logo1" viewBox="0 0 480 180"><path class="svg-logo__logo" d="M200 0L100 180 0 0h141l-41 73-15-26 12-21H44l56 100L170 0z" fill="url(#a)"/><text class="svg-logo__name" x="320" y="120" font-size="100" font-family="Times New Roman, Arial, sans-serif" font-weight="bold" text-anchor="middle" fill="url(#a)">&#x423;&#x420;&#x410;&#x41B;</text><text x="320" y="150" font-size="50" font-family="Times New Roman, Arial, sans-serif" font-weight="bold" text-anchor="middle" fill="url(#a)">&#x438;&#x43D;&#x436;&#x438;&#x43D;&#x438;&#x440;&#x438;&#x43D;&#x433;</text></symbol><symbol id="phone-ringing" viewBox="0 0 512.021 512.021"><path d="M367.988 512.021c-16.528 0-32.916-2.922-48.941-8.744-70.598-25.646-136.128-67.416-189.508-120.795S34.389 263.572 8.744 192.974c-8.241-22.688-10.673-46.108-7.226-69.612 3.229-22.016 11.757-43.389 24.663-61.809 12.963-18.501 30.245-33.889 49.977-44.5C97.2 5.738 120.167 0 144.423 0a16.002 16.002 0 0115.645 12.647l25.114 117.199a16.004 16.004 0 01-4.331 14.667l-42.913 42.912c40.482 80.486 106.17 146.174 186.656 186.656l42.912-42.913a16.008 16.008 0 0114.667-4.331l117.199 25.114a16 16 0 0112.647 15.645c0 24.256-5.738 47.224-17.054 68.266-10.611 19.732-25.999 37.014-44.5 49.977-18.419 12.906-39.792 21.434-61.809 24.663a142.318 142.318 0 01-20.668 1.519zM131.639 32.7c-31.995 3.532-60.393 20.302-79.251 47.217-21.206 30.265-26.151 67.49-13.567 102.132C88.125 317.775 194.246 423.896 329.972 473.2c34.641 12.584 71.867 7.64 102.132-13.567 26.915-18.858 43.685-47.256 47.217-79.251l-95.341-20.43-44.816 44.816a15.998 15.998 0 01-18.117 3.168c-95.19-44.72-172.242-121.772-216.962-216.962a15.999 15.999 0 013.168-18.117l44.816-44.816zM496.02 272c-8.836 0-16-7.164-16-16 0-123.514-100.486-224-224-224-8.836 0-16-7.164-16-16s7.164-16 16-16c68.381 0 132.668 26.628 181.02 74.98S512.02 187.619 512.02 256c0 8.836-7.163 16-16 16z"/><path d="M432.02 272c-8.836 0-16-7.164-16-16 0-88.224-71.776-160-160-160-8.836 0-16-7.164-16-16s7.164-16 16-16c105.869 0 192 86.131 192 192 0 8.836-7.163 16-16 16z"/><path d="M368.02 272c-8.836 0-16-7.164-16-16 0-52.935-43.065-96-96-96-8.836 0-16-7.164-16-16s7.164-16 16-16c70.58 0 128 57.42 128 128 0 8.836-7.163 16-16 16z"/></symbol><symbol id="phone" viewBox="0 0 512.021 512.021"><path d="M367.988 512.021c-16.528 0-32.916-2.922-48.941-8.744-70.598-25.646-136.128-67.416-189.508-120.795S34.389 263.572 8.744 192.974c-8.241-22.688-10.673-46.108-7.226-69.612 3.229-22.016 11.757-43.389 24.663-61.809 12.963-18.501 30.245-33.889 49.977-44.5C97.2 5.738 120.167 0 144.423 0a16.002 16.002 0 0115.645 12.647l25.114 117.199a16.004 16.004 0 01-4.331 14.667l-42.913 42.912c40.482 80.486 106.17 146.174 186.656 186.656l42.912-42.913a16.01 16.01 0 0114.667-4.331l117.199 25.114a16 16 0 0112.647 15.645c0 24.256-5.738 47.224-17.054 68.266-10.611 19.732-25.999 37.014-44.5 49.977-18.419 12.906-39.792 21.434-61.809 24.663a142.318 142.318 0 01-20.668 1.519zM131.639 32.7c-31.995 3.532-60.393 20.302-79.251 47.217-21.206 30.265-26.151 67.49-13.567 102.132C88.125 317.775 194.246 423.896 329.972 473.2c34.641 12.584 71.866 7.64 102.132-13.567 26.915-18.858 43.685-47.256 47.217-79.251l-95.341-20.43-44.816 44.816a15.998 15.998 0 01-18.117 3.168c-95.19-44.72-172.242-121.772-216.962-216.962a15.999 15.999 0 013.168-18.117l44.816-44.816z"/></symbol><symbol id="send" viewBox="0 0 512.01 512.01"><path d="M329.065 512H276c-19.333 0-35.156-15.319-35.967-34.457l-29.902-175.674-175.674-29.901C15.319 271.156 0 255.333 0 236v-53.065A85.803 85.803 0 0165.557 99.4L467.637.998l.168-.04c12.2-2.847 24.775.742 33.635 9.602 8.859 8.86 12.449 21.434 9.603 33.636a10.22 10.22 0 01-.04.168l-98.402 402.08A85.804 85.804 0 01329.065 512zM475.13 32.108L73.164 130.483A53.875 53.875 0 0032 182.935V236c0 2.206 1.794 4 4 4 .9 0 1.798.076 2.685.227l188 32a15.999 15.999 0 0113.088 13.088l32 188c.151.887.227 1.785.227 2.685 0 2.206 1.794 4 4 4h53.065a53.875 53.875 0 0052.452-41.164L479.893 36.87c.389-1.76-.37-2.973-1.08-3.683-.71-.709-1.924-1.468-3.683-1.079z"/><path d="M224 304a15.945 15.945 0 01-11.313-4.687c-6.249-6.248-6.249-16.379 0-22.627l160-160c6.248-6.249 16.379-6.249 22.627 0 6.249 6.248 6.249 16.379 0 22.627l-160 160A15.949 15.949 0 01224 304z"/></symbol><symbol id="vk" viewBox="0 0 24 24"><path d="M12.145 19.5c3.472 0 2.234-2.198 2.502-2.83-.004-.472-.008-.926.008-1.202.22.062.739.325 1.811 1.367 1.655 1.67 2.078 2.665 3.415 2.665h2.461c.78 0 1.186-.323 1.389-.594.196-.262.388-.722.178-1.438-.549-1.724-3.751-4.701-3.95-5.015a2.84 2.84 0 01.103-.175h-.002c.632-.835 3.044-4.449 3.399-5.895a.019.019 0 00.002-.008c.192-.66.016-1.088-.166-1.33-.274-.362-.71-.545-1.299-.545h-2.461c-.824 0-1.449.415-1.765 1.172-.529 1.345-2.015 4.111-3.129 5.09a64.114 64.114 0 01.007-3.233c.036-1.535.152-3.029-1.441-3.029H9.339c-.998 0-1.953 1.09-.919 2.384.904 1.134.325 1.766.52 4.912-.76-.815-2.112-3.016-3.068-5.829-.268-.761-.674-1.466-1.817-1.466H1.594C.596 4.501 0 5.045 0 5.956 0 8.002 4.529 19.5 12.145 19.5zM4.055 6.001c.217 0 .239 0 .4.457.979 2.883 3.175 7.149 4.779 7.149 1.205 0 1.205-1.235 1.205-1.7l-.001-3.702C10.372 6.98 9.926 6.37 9.633 6l3.508.004c.002.017-.02 4.095.01 5.083 0 1.403 1.114 2.207 2.853.447 1.835-2.071 3.104-5.167 3.155-5.293.075-.18.14-.241.376-.241H22.006l-.002.009c-.225 1.05-2.446 4.396-3.189 5.435l-.034.05c-.327.534-.593 1.124.045 1.954h.001c.058.07.209.234.429.462.684.706 3.03 3.12 3.238 4.08-.138.022-.288.006-2.613.011-.495 0-.882-.74-2.359-2.23-1.328-1.292-2.19-1.82-2.975-1.82-1.524 0-1.413 1.237-1.399 2.733.005 1.622-.005 1.109.006 1.211-.089.035-.344.105-1.009.105C5.8 18 1.668 7.929 1.509 6.004c.055-.005.812-.002 2.546-.003z"/></symbol><symbol id="vk1" viewBox="0 0 24 24"><path d="M19.915 13.028c-.388-.49-.277-.708 0-1.146.005-.005 3.208-4.431 3.538-5.932l.002-.001c.164-.547 0-.949-.793-.949h-2.624c-.668 0-.976.345-1.141.731 0 0-1.336 3.198-3.226 5.271-.61.599-.892.791-1.225.791-.164 0-.419-.192-.419-.739V5.949c0-.656-.187-.949-.74-.949H9.161c-.419 0-.668.306-.668.591 0 .622.945.765 1.043 2.515v3.797c0 .832-.151.985-.486.985-.892 0-3.057-3.211-4.34-6.886-.259-.713-.512-1.001-1.185-1.001H.9c-.749 0-.9.345-.9.731 0 .682.892 4.073 4.148 8.553C6.318 17.343 9.374 19 12.154 19c1.671 0 1.875-.368 1.875-1.001 0-2.922-.151-3.198.686-3.198.388 0 1.056.192 2.616 1.667C19.114 18.217 19.407 19 20.405 19h2.624c.748 0 1.127-.368.909-1.094-.499-1.527-3.871-4.668-4.023-4.878z"/></symbol><symbol id="whatsapp" viewBox="0 0 24 24"><path d="M13.33 18.076c4.05.964 5.475-2.5 4.761-3.793-.286-.516-2.856-1.507-2.981-1.555-1.104-.402-1.512.348-2.277 1.335-1.469-.735-2.454-1.314-3.466-2.96.057-.071.133-.155.19-.219.354-.396 1.017-1.134.565-2.037-.38-.757-.569-1.285-.708-1.672-.403-1.121-.71-1.425-2.098-1.425-1.445 0-2.566 1.899-2.566 3.534 0 3.569 4.798 7.889 8.58 8.792zM7.316 7.25c.3 0 .452.01.528.022.162.343.326 1.059.93 2.173-.094.351-1.429 1.174-.81 2.238 1.265 2.148 2.531 2.893 4.345 3.795 1.208.546 1.594-.443 2.36-1.312.355.144 1.553.674 2.079.94-.047 1.036-1.047 1.992-3.07 1.51-3.472-.829-7.429-4.735-7.429-7.333.001-.988.694-2.033 1.067-2.033z"/><path d="M.083 23.085a.75.75 0 00.723.949c.18 0-.114.046 5.848-1.5 2.427 1.236 4.272 1.197 5.45 1.308 10.555 0 15.725-12.873 8.461-20.363C10.608-6.145-4.899 5.815 1.59 17.606zM19.371 4.413c.173.316 5.135 4.791 2.372 11.478-1.701 4.12-5.626 6.659-10.024 6.421-3.578-.199-4.504-1.477-5.163-1.302l-4.683 1.22 1.245-4.524a.75.75 0 00-.073-.575C-2.938 6.807 10.591-3.808 19.371 4.413z"/></symbol><symbol id="whatsapp1" viewBox="0 0 512 512"><path d="M256.064 0h-.128C114.784 0 0 114.816 0 256c0 56 18.048 107.904 48.736 150.048l-31.904 95.104 98.4-31.456C155.712 496.512 204 512 256.064 512 397.216 512 512 397.152 512 256S397.216 0 256.064 0zm148.96 361.504c-6.176 17.44-30.688 31.904-50.24 36.128-13.376 2.848-30.848 5.12-89.664-19.264-75.232-31.168-123.68-107.616-127.456-112.576-3.616-4.96-30.4-40.48-30.4-77.216s18.656-54.624 26.176-62.304c6.176-6.304 16.384-9.184 26.176-9.184 3.168 0 6.016.16 8.576.288 7.52.32 11.296.768 16.256 12.64 6.176 14.88 21.216 51.616 23.008 55.392 1.824 3.776 3.648 8.896 1.088 13.856-2.4 5.12-4.512 7.392-8.288 11.744-3.776 4.352-7.36 7.68-11.136 12.352-3.456 4.064-7.36 8.416-3.008 15.936 4.352 7.36 19.392 31.904 41.536 51.616 28.576 25.44 51.744 33.568 60.032 37.024 6.176 2.56 13.536 1.952 18.048-2.848 5.728-6.176 12.8-16.416 20-26.496 5.12-7.232 11.584-8.128 18.368-5.568 6.912 2.4 43.488 20.48 51.008 24.224 7.52 3.776 12.48 5.568 14.304 8.736 1.792 3.168 1.792 18.048-4.384 35.52z"/></symbol></svg>