<svg xmlns="http://www.w3.org/2000/svg" xmlns:xlink="http://www.w3.org/1999/xlink"><defs><linearGradient id="a"><stop offset="0%" stop-color="#11AD00"/><stop offset="100%" stop-color="#F0FB00"/></linearGradient></defs><symbol id="adress" viewBox="0 0 28.04 33.85"><path class="cls-1" d="M23.93 4.11a14 14 0 00-19.82 0 14 14 0 000 19.82L14 33.85l9.91-9.92a14 14 0 00.02-19.82zM14 22.31a8.43 8.43 0 118.43-8.43A8.43 8.43 0 0114 22.31z"/></symbol><symbol id="logo" viewBox="0 0 200 180"><path d="M200 0L100 180 0 0h141l-41 73-15-26 12-21H44l56 100L170 0z" fill="url(#a)"/></symbol><symbol id="mail" viewBox="0 0 27.11 17.81"><path class="cls-1" d="M26.72 0H.47l13.22 10.95L26.72 0z"/><path class="cls-1" d="M13.71 16.17L0 4.83v12.98h27.11V4.91l-13.4 11.26z"/></symbol><symbol id="phone" viewBox="0 0 17.81 27.11"><path class="cls-1" d="M0 0v27.11h17.81V0zm8.9 25.76A1.74 1.74 0 1110.64 24a1.74 1.74 0 01-1.74 1.76zM13.7 21H4.11V3.93h9.59z"/></symbol><symbol id="time" viewBox="0 0 28.04 28.04"><path class="cls-1" d="M12.7 17.49l-1.77-1.66 2.04-2.17V8.14h2.43v6.49l-2.7 2.86z"/><path class="cls-1" d="M24.86 22.9c.13-.16.25-.33.37-.49s.31-.4.45-.61.25-.4.37-.61.23-.37.33-.56.21-.43.31-.64.2-.4.28-.61.16-.42.23-.63.17-.44.23-.66.11-.43.17-.64.12-.46.17-.69.07-.5.11-.75.07-.4.09-.61c.03-.4.03-.91.03-1.4s0-.93-.07-1.38c0-.21-.06-.41-.09-.62s-.06-.5-.11-.74-.11-.46-.17-.69-.1-.43-.17-.64-.15-.44-.23-.67-.14-.42-.23-.63-.19-.4-.28-.6-.2-.43-.31-.64-.22-.38-.33-.56-.24-.42-.37-.61-.3-.41-.45-.61-.24-.34-.37-.5q-.43-.52-.93-1a12.9 12.9 0 00-1-.93l-.49-.37c-.2-.15-.4-.31-.61-.45s-.4-.25-.61-.37-.37-.23-.56-.33L20 1.35c-.2-.1-.4-.2-.61-.28a6.56 6.56 0 00-.62-.23L18.09.6l-.64-.16-.69-.17c-.24-.05-.49-.08-.76-.11s-.39-.07-.6-.09C15 0 14.49 0 14 0s-.93 0-1.38.07c-.21 0-.41.06-.62.09s-.5.06-.74.11l-.69.17L10 .6l-.72.24c-.21.07-.42.14-.63.23s-.4.18-.6.28l-.64.31c-.19.1-.38.22-.56.33s-.42.24-.61.37-.41.3-.61.45-.34.24-.5.37q-.52.44-1 .93-.5.5-.93 1c-.13.16-.25.33-.37.49s-.31.41-.45.62-.25.4-.37.6-.23.38-.33.57-.21.42-.31.63-.2.41-.28.62a6.56 6.56 0 00-.23.62c-.1.24-.19.46-.26.74s-.11.42-.16.64-.12.46-.17.69-.08.49-.11.74-.07.41-.09.62C0 13.09 0 13.55 0 14s0 1 .07 1.4c0 .21.06.41.09.62s.06.5.11.74.11.46.17.69.1.43.16.64.16.45.24.67a6.56 6.56 0 00.23.62c.08.21.19.41.28.61s.2.43.31.64.22.38.33.57.24.41.37.6.3.41.45.62.24.33.37.48a12.9 12.9 0 00.93 1 14 14 0 0019.82 0 12.9 12.9 0 00.93-1zM14 22.31a8.43 8.43 0 118.43-8.42A8.43 8.43 0 0114 22.31z"/></symbol><symbol id="whatsapp" viewBox="0 0 59.43 58.64"><path class="cls-1" d="M30.12 58.64a29.34 29.34 0 01-15.56-4.46L0 58.24l3.15-17.39a29.32 29.32 0 1129.7 17.67q-1.36.12-2.73.12zm-14.86-9l.79.54a25.19 25.19 0 1011.7-46A25.19 25.19 0 007.17 39.74l.27.59-2.2 12.16z"/><path class="cls-1" d="M36.55 46.15l-.29-.07a11.3 11.3 0 01-4.35-.9C24.28 42 18.7 36.19 15.31 28a20.9 20.9 0 01-.72-2.2c-.09-.31-.18-.63-.28-.95v-.16l-.29-2v-.3a8.78 8.78 0 012-5.78 9.57 9.57 0 013.52-2.72l.28-.08 1.18-.14h.13A3.85 3.85 0 0124.22 16c.72 1.48 1.45 3 2.09 4.59a3.18 3.18 0 01-1.24 4.1c-.61.43-1.24.81-1.85 1.18l-.59.36A31.33 31.33 0 0032.09 37 18.85 18.85 0 0134 34.66a3.19 3.19 0 014-.58l.72.41a38.28 38.28 0 013.68 2.26 4.26 4.26 0 012 2.81 4.41 4.41 0 01-1.23 3.35 8.72 8.72 0 01-4 2.73l-.21.08-.39.14zM36.33 44a1.32 1.32 0 01.3 0l1.46-.22.36-.14a6.57 6.57 0 003.07-2.08 2.59 2.59 0 00.79-1.78 2.37 2.37 0 00-1.12-1.4 36 36 0 00-3.48-2.14l-.71-.36a1.14 1.14 0 00-1.53.23 17.37 17.37 0 00-1.67 2.11 2.08 2.08 0 01-1.33 1 2 2 0 01-1.5-.46 33.26 33.26 0 01-10.2-11.69 1.77 1.77 0 01.75-2.6l.65-.4c.6-.36 1.18-.71 1.72-1.1.71-.5.83-.88.53-1.63-.62-1.52-1.34-3-2-4.48a1.81 1.81 0 00-1.42-1.1l-.69.1a7.41 7.41 0 00-2.64 2.08 6.62 6.62 0 00-1.55 4.48 1.61 1.61 0 010 .35l.23 1.53.27.92a20 20 0 00.64 2c3.22 7.78 8.28 13 15.49 16.07a9.17 9.17 0 003.55.71z"/></symbol></svg>